<svg 
 xmlns="http://www.w3.org/2000/svg"
 xmlns:xlink="http://www.w3.org/1999/xlink"
 width="22px" height="27px">
<path fill-rule="evenodd"  fill="rgb(255, 255, 255)"
 d="M10.858,26.305 C10.858,26.305 0.053,22.235 0.053,11.954 C0.053,4.192 0.044,2.875 0.040,2.695 C0.066,2.679 3.754,0.512 10.825,0.512 C17.921,0.512 22.000,2.696 22.000,2.696 C22.000,2.696 22.004,1.237 22.004,11.882 C22.004,22.527 10.858,26.305 10.858,26.305 ZM20.010,4.635 C20.010,4.635 16.762,2.847 10.950,2.847 C10.985,2.847 10.977,23.971 10.977,23.971 C10.977,23.971 20.013,20.876 20.013,12.158 C20.013,3.441 20.010,4.635 20.010,4.635 ZM0.040,2.695 C0.040,2.695 0.037,2.696 0.037,2.696 C0.037,2.696 0.038,2.636 0.040,2.695 Z"/>
</svg>