<svg 
 xmlns="http://www.w3.org/2000/svg"
 xmlns:xlink="http://www.w3.org/1999/xlink"
 width="26px" height="30px">
<path fill-rule="evenodd"  fill="rgb(255, 255, 255)"
 d="M24.465,16.317 C23.821,16.689 23.069,16.179 22.698,15.535 L19.676,10.095 L21.764,19.902 C21.764,20.249 21.484,20.529 21.138,20.529 L19.939,20.529 L19.939,28.546 C19.939,29.224 19.456,29.774 18.778,29.774 C18.099,29.774 18.052,29.224 18.052,28.546 L18.052,20.529 L15.978,20.529 L15.978,28.546 C15.978,29.224 15.532,29.774 14.854,29.774 C14.176,29.774 13.893,29.224 13.893,28.546 L13.893,20.529 L11.966,20.529 C11.619,20.529 11.339,20.249 11.339,19.902 L13.667,10.001 L11.507,14.327 C11.278,14.724 10.921,15.028 10.497,15.064 L9.279,17.994 L9.281,28.630 C9.281,29.043 9.147,29.785 8.245,29.785 C7.344,29.785 7.451,29.043 7.451,28.630 L7.451,25.160 L5.603,25.160 L5.603,28.630 C5.603,29.043 5.602,29.759 4.809,29.759 C4.015,29.759 3.925,29.043 3.925,28.630 L3.932,19.341 L2.086,22.850 C1.860,23.242 1.358,23.376 0.965,23.150 C0.573,22.924 0.439,22.422 0.665,22.029 L2.427,17.266 C2.588,16.988 2.888,16.847 3.188,16.865 L3.188,16.854 L7.777,16.818 L9.252,14.222 C9.134,13.868 9.045,13.473 9.246,13.125 L12.551,8.002 C12.660,7.728 12.820,7.475 13.016,7.260 C13.260,6.950 13.609,6.693 13.973,6.625 C17.055,6.625 17.298,6.604 19.013,6.604 C19.542,6.528 20.087,6.768 20.370,7.259 L24.814,14.405 C25.186,15.049 25.109,15.945 24.465,16.317 ZM16.660,5.749 C15.148,5.749 13.923,4.523 13.923,3.011 C13.923,1.500 15.148,0.275 16.660,0.275 C18.171,0.275 19.397,1.500 19.397,3.011 C19.397,4.523 18.171,5.749 16.660,5.749 ZM5.494,16.239 C4.344,16.239 3.412,15.307 3.412,14.157 C3.412,13.008 4.344,12.076 5.494,12.076 C6.644,12.076 7.576,13.008 7.576,14.157 C7.576,15.307 6.644,16.239 5.494,16.239 Z"/>
</svg>