<svg 
 xmlns="http://www.w3.org/2000/svg"
 xmlns:xlink="http://www.w3.org/1999/xlink"
 width="37px" height="37px">
<path fill-rule="evenodd"  fill="rgb(255, 255, 255)"
 d="M22.628,28.696 C19.627,28.696 16.846,27.756 14.562,26.155 C14.529,26.954 14.208,27.743 13.598,28.353 L6.351,35.599 C5.061,36.889 2.970,36.889 1.680,35.599 C0.390,34.309 0.390,32.217 1.680,30.927 L8.926,23.681 C9.534,23.073 10.321,22.752 11.117,22.717 C9.506,20.429 8.560,17.639 8.560,14.629 C8.560,6.859 14.858,0.561 22.628,0.561 C30.397,0.561 36.695,6.859 36.695,14.629 C36.695,22.398 30.397,28.696 22.628,28.696 ZM22.628,4.494 C17.031,4.494 12.493,9.032 12.493,14.629 C12.493,20.226 17.031,24.763 22.628,24.763 C28.225,24.763 32.762,20.226 32.762,14.629 C32.762,9.032 28.225,4.494 22.628,4.494 Z"/>
</svg>