<svg 
 xmlns="http://www.w3.org/2000/svg"
 xmlns:xlink="http://www.w3.org/1999/xlink"
 width="16px" height="37px">
<path fill-rule="evenodd"  fill="rgb(255, 255, 255)"
 d="M0.308,36.951 L0.308,34.116 C0.308,34.116 3.986,34.367 3.986,31.971 C3.986,27.153 3.986,20.319 3.986,17.867 C3.986,15.415 0.308,15.798 0.308,15.798 L0.308,13.040 L12.014,13.040 C12.014,13.040 12.014,24.181 12.014,31.894 C12.014,34.393 15.692,34.269 15.692,34.269 L15.692,36.951 L0.308,36.951 ZM7.464,10.969 C4.587,10.969 2.254,8.637 2.254,5.759 C2.254,2.882 4.587,0.550 7.464,0.550 C10.341,0.550 12.674,2.882 12.674,5.759 C12.674,8.637 10.341,10.969 7.464,10.969 Z"/>
</svg>