<svg 
 xmlns="http://www.w3.org/2000/svg"
 xmlns:xlink="http://www.w3.org/1999/xlink"
 width="49.5px" height="30.5px">
<path fill-rule="evenodd"  stroke="rgb(255, 255, 255)" stroke-width="1px" stroke-linecap="butt" stroke-linejoin="miter" fill="rgb(255, 255, 255)"
 d="M47.366,27.456 L40.465,27.456 C40.465,27.456 41.093,21.889 39.066,19.813 C37.039,17.738 36.025,17.883 36.025,17.883 C36.025,17.883 35.929,17.111 34.964,15.904 C33.998,14.698 33.419,13.781 33.564,11.754 C33.750,9.155 34.288,6.542 37.570,6.542 C40.851,6.542 41.817,9.051 41.817,11.416 C41.865,15.325 39.355,16.821 39.355,18.124 C39.355,19.427 40.948,20.586 43.650,21.309 C48.139,22.082 47.366,27.456 47.366,27.456 ZM30.649,19.862 C33.351,20.537 34.848,20.537 35.668,21.889 C36.488,23.240 36.488,27.538 36.488,27.538 L12.407,27.538 C12.407,27.538 12.117,22.661 13.613,21.406 C15.109,20.151 17.812,20.344 19.694,19.234 C21.576,18.124 22.155,17.304 22.155,16.290 C22.300,14.408 19.163,13.105 19.308,8.183 C19.453,3.550 21.431,1.764 24.423,1.764 C27.029,1.764 29.587,3.550 29.587,7.990 C29.587,12.430 27.898,13.733 27.271,14.650 C26.643,15.567 26.788,15.904 26.788,16.580 C26.788,17.256 27.946,19.186 30.649,19.862 ZM13.082,17.883 C13.082,17.883 12.069,17.738 10.042,19.813 C8.015,21.889 8.642,27.534 8.642,27.534 L1.741,27.534 C1.741,27.534 0.969,22.082 5.457,21.309 C8.160,20.586 9.752,19.427 9.752,18.124 C9.752,16.821 7.243,15.325 7.291,11.416 C7.291,9.051 8.256,6.542 11.538,6.542 C14.820,6.542 15.358,9.155 15.544,11.754 C15.688,13.781 15.109,14.698 14.144,15.904 C13.179,17.111 13.082,17.883 13.082,17.883 Z"/>
</svg>