<svg 
 xmlns="http://www.w3.org/2000/svg"
 xmlns:xlink="http://www.w3.org/1999/xlink"
 width="19px" height="39px">
<path fill-rule="evenodd"  fill="rgb(255, 255, 255)"
 d="M11.768,18.196 C16.447,19.954 18.627,22.425 18.680,26.379 C18.680,30.485 16.024,33.630 11.022,34.487 L11.022,38.999 L9.072,38.999 L7.981,38.999 L7.981,34.722 C4.914,34.694 2.163,33.938 0.284,32.860 L1.560,27.972 C3.049,28.906 5.867,29.894 8.206,29.894 C11.077,29.894 12.353,28.686 12.353,26.929 C12.353,25.116 11.290,24.182 8.100,23.029 C3.049,21.217 0.922,18.361 0.975,15.230 C0.975,11.288 3.616,8.085 7.981,7.132 L7.981,0.969 L9.072,0.969 L11.022,0.969 L11.022,6.836 C13.780,6.882 16.175,7.622 17.617,8.420 L16.341,13.198 C15.224,12.539 13.151,11.661 10.864,11.661 C8.525,11.661 7.249,12.814 7.249,14.462 C7.249,16.164 8.472,16.988 11.768,18.196 Z"/>
</svg>