<svg 
 xmlns="http://www.w3.org/2000/svg"
 xmlns:xlink="http://www.w3.org/1999/xlink"
 width="42px" height="41px">
<path fill-rule="evenodd"  fill="rgb(255, 255, 255)"
 d="M41.392,17.465 L39.346,17.812 C39.346,17.812 38.803,17.845 38.572,18.405 C38.340,18.963 37.764,20.479 37.764,20.479 C37.764,20.479 37.712,20.784 37.374,20.821 C37.037,20.859 36.894,20.551 36.894,20.551 C36.894,20.551 36.220,19.320 35.882,18.729 C35.544,18.138 34.933,18.174 34.933,18.174 L32.790,18.100 C32.790,18.100 32.550,18.080 32.427,17.810 C32.304,17.540 32.524,17.331 32.524,17.331 C32.524,17.331 33.601,16.173 34.038,15.689 C34.474,15.207 34.308,14.772 34.308,14.772 L33.672,12.735 C33.672,12.735 33.567,12.453 33.814,12.237 C34.061,12.022 34.357,12.214 34.357,12.214 C34.357,12.214 35.543,12.742 36.187,13.004 C36.731,13.238 37.252,12.890 37.252,12.890 L39.052,11.859 C39.052,11.859 39.290,11.631 39.578,11.825 C39.879,12.026 39.779,12.304 39.779,12.304 L39.504,14.388 C39.504,14.388 39.434,14.895 39.936,15.304 C40.439,15.712 41.563,16.635 41.563,16.635 C41.563,16.635 41.849,16.789 41.774,17.087 C41.694,17.423 41.392,17.465 41.392,17.465 ZM35.543,9.298 C34.810,9.310 34.206,8.731 34.194,8.005 C34.182,7.278 34.767,6.680 35.500,6.668 C36.232,6.657 36.836,7.236 36.848,7.962 C36.860,8.688 36.275,9.286 35.543,9.298 ZM30.316,7.741 C28.918,8.173 26.000,6.663 26.000,6.663 L23.574,9.978 C23.574,9.978 24.003,10.954 23.359,12.029 C23.787,12.923 23.387,13.749 23.387,13.749 C23.387,13.749 24.323,15.372 24.596,16.924 C25.707,19.118 26.072,21.241 26.072,21.241 C26.072,21.241 27.164,25.225 27.550,25.759 C26.274,25.788 15.756,26.596 7.764,30.367 C7.825,25.924 8.502,16.025 10.310,12.812 C12.962,8.101 20.194,0.449 22.667,0.000 C25.139,-0.449 34.908,5.456 34.757,6.359 C34.607,7.262 31.714,7.309 30.316,7.741 ZM8.043,31.067 C8.050,31.065 8.056,31.062 8.063,31.060 C8.059,31.064 8.056,31.070 8.052,31.075 C8.058,31.073 8.065,31.072 8.071,31.070 C8.071,31.062 8.069,31.059 8.068,31.058 C15.668,28.127 22.778,27.028 26.782,26.714 L18.455,35.457 C15.194,36.016 11.910,36.422 10.301,36.422 C6.853,36.540 -0.386,36.163 0.666,34.754 C0.702,34.743 0.738,34.733 0.774,34.722 C3.813,33.223 6.181,31.521 8.045,31.077 C8.044,31.075 8.044,31.072 8.043,31.067 ZM26.945,27.574 C32.445,21.327 33.743,20.004 33.743,20.004 C34.192,19.495 34.351,18.906 34.865,19.350 C35.379,19.795 34.812,20.032 34.363,20.540 C34.363,20.540 33.261,22.055 27.772,28.289 C23.459,33.188 18.006,40.417 18.006,40.417 C17.558,40.926 16.778,40.979 16.264,40.535 C15.749,40.090 15.696,39.317 16.145,38.807 C16.145,38.807 22.650,32.452 26.945,27.574 ZM38.685,28.605 C39.245,30.156 30.414,32.884 30.249,32.806 C29.042,33.213 26.161,33.997 23.497,34.557 L30.093,26.672 C32.005,26.720 38.683,28.129 38.685,28.605 Z"/>
</svg>