<svg 
 xmlns="http://www.w3.org/2000/svg"
 xmlns:xlink="http://www.w3.org/1999/xlink"
 width="36px" height="36px">
<path fill-rule="evenodd"  fill="rgb(255, 255, 255)"
 d="M18.000,35.983 C8.067,35.983 0.015,27.931 0.015,17.999 C0.015,8.067 8.067,0.015 18.000,0.015 C27.932,0.015 35.984,8.067 35.984,17.999 C35.984,27.931 27.932,35.983 18.000,35.983 ZM32.349,12.145 C32.066,11.390 30.084,11.627 30.131,10.588 C30.178,9.550 26.827,11.344 25.363,11.297 C23.900,11.249 21.068,14.837 22.248,16.347 C24.797,21.445 26.071,17.433 27.440,18.707 C28.809,19.982 29.565,18.943 29.045,20.076 C28.526,21.209 30.131,21.303 30.131,22.531 C30.131,23.758 29.376,23.144 29.565,24.277 C29.738,25.318 29.315,27.593 30.380,28.322 C32.714,25.526 34.120,21.927 34.120,17.999 C34.120,15.856 33.701,13.812 32.941,11.941 C32.746,12.280 32.500,12.549 32.349,12.145 ZM2.075,15.485 C2.075,15.485 3.461,14.789 3.933,15.592 C4.405,16.394 5.774,16.206 6.104,17.102 C6.435,17.999 7.521,17.008 7.945,17.669 C8.370,18.330 7.332,18.283 7.898,18.801 C8.464,19.321 7.662,19.179 7.237,20.218 C6.813,21.256 7.096,21.870 8.134,23.049 C9.172,24.230 8.748,23.238 9.833,24.277 C10.546,24.959 9.221,28.013 8.615,29.803 C8.299,30.739 8.827,31.230 8.827,31.230 C9.682,31.846 10.576,32.365 11.513,32.786 C11.718,32.213 12.064,31.062 11.533,31.028 C11.155,30.225 16.489,28.101 16.678,25.740 C18.377,25.221 20.596,21.823 19.463,20.831 C14.648,19.793 14.884,14.695 8.559,16.960 C6.057,17.055 6.671,13.751 4.547,14.600 C2.422,15.450 3.225,11.863 4.027,12.240 C4.830,12.618 7.993,12.901 8.701,11.674 C9.409,10.446 10.211,9.266 12.382,9.078 C14.554,8.889 15.167,7.284 14.601,6.671 C12.073,5.827 12.837,4.569 11.411,3.284 C6.527,5.474 2.931,10.024 2.075,15.485 ZM13.846,2.420 C14.026,3.403 14.738,6.564 16.300,5.443 C17.598,3.954 21.551,2.991 23.015,2.676 C21.437,2.160 19.751,1.879 18.000,1.879 C16.563,1.879 15.171,2.068 13.846,2.420 ZM27.498,4.974 C27.410,5.486 27.124,6.295 26.213,6.812 C24.797,7.614 28.007,8.228 27.157,8.700 C26.307,9.172 25.363,8.275 24.797,9.172 C24.230,10.069 24.608,10.683 25.363,10.872 C26.119,11.060 28.432,8.559 30.650,9.030 C31.006,9.106 31.271,9.137 31.464,9.135 C30.401,7.522 29.055,6.112 27.498,4.974 Z"/>
</svg>